<?xml version="1.0" encoding="utf-8"?>
<!-- Generator: Adobe Illustrator 17.1.0, SVG Export Plug-In . SVG Version: 6.00 Build 0)  -->
<!DOCTYPE svg PUBLIC "-//W3C//DTD SVG 1.1//EN" "http://www.w3.org/Graphics/SVG/1.1/DTD/svg11.dtd">
<svg version="1.1" id="Layer_1" xmlns="http://www.w3.org/2000/svg" xmlns:xlink="http://www.w3.org/1999/xlink" x="0px" y="0px"
	 width="745px" height="476.6px" viewBox="0 0 745 476.6" enable-background="new 0 0 745 476.6" xml:space="preserve">
<image display="none" overflow="visible" opacity="0.32" width="883" height="502" xlink:href="E25E80A1.png"  transform="matrix(0.9999 0 0 0.9999 0.4167 -25.1017)">
</image>
<rect x="0" y="0" display="none" fill="#3A4147" width="745" height="476.6"/>
<g>
	<path fill="#FFFFFF" d="M225.8,254.3v-17.8l-87.2,10v17.8l-16.4,1.9v-34.6l16.6-1.9c17.5-24,27.8-52.4,32.9-85.3l-12.4,1.4
		l-6.9-16.2l80.1-9.2v98.5l9.8-1.1v34.6L225.8,254.3z M216,220.8v-81.5l-27.9,3.2c-2.9,25.2-14.2,60.8-29.3,84.8L216,220.8z"/>
	<path fill="#FFFFFF" d="M348.1,225.1c-30.3,3.5-54.5-16.9-57.8-47.6l-15.2,1.8v51.6l-16.3,1.9V117.4l16.3-1.9v46.7l15.5-1.8
		c4.4-30.3,29.4-53.5,57.6-56.7c32.1-3.7,58.2,19.1,58.2,53.6C406.5,192.4,380.7,221.3,348.1,225.1z M348.1,120.7
		c-24.1,2.8-42.7,22.2-42.7,48.2c0,24.9,20.2,41.9,42.8,39.3c24-2.8,42.5-24.1,42.5-49.1C390.8,133.7,371.2,118.1,348.1,120.7z"/>
</g>
<g>
	<path fill="#FFFFFF" d="M106.7,376.2v-83.8l-51.3,5.9v83.8l-13.9,1.6v-98.2l79.2-9.1v98.2L106.7,376.2z"/>
	<path fill="#FFFFFF" d="M207.8,364.6v-83.8l-27.6,3.2c-2.4,25.8-8.2,56.6-23.6,77.3c-6.9,9.2-16.6,11.1-21.7,11.7l-2.6,0.3v-14.4
		l2.6-0.3c4.4-0.5,9.6-2,16.7-14.4c10.3-18,13.1-38.3,15.2-58.6l-11.1,1.3l-6-13.8l72.2-8.3V363L207.8,364.6z"/>
	<path fill="#FFFFFF" d="M268.3,257.7l15.4-1.8l46.1,94.6l-15.7,1.8l-6.3-13.6l-29.2,3.4c-17.5,2-26.9,8.8-29,13.1l-2.4,4.9
		l-15.2,1.7l41.5-92.6L268.3,257.7z M301.6,324.9l-20.9-39.1l-21.2,49.5c3.5-3.4,11.3-6.8,24.4-8.3L301.6,324.9z"/>
	<path fill="#FFFFFF" d="M414.6,266c-6.9-6.6-17.1-9.9-28-8.6c-21.3,2.5-37.8,20-37.8,42.1c0,21.2,17.9,34.7,37.9,32.4
		c12.5-1.4,23.5-8.6,30.5-18.9l8.6,11c-9.6,12.2-23.8,20.5-39.2,22.3c-29,3.3-51.5-17.2-51.5-46.9c0-29,24.2-53.3,51.7-56.5
		c14.4-1.7,27.5,2.8,36.9,11.3L414.6,266z"/>
	<path fill="#FFFFFF" d="M477.4,249.8v83.8l-13.6,1.6v-83.8l-34.2,3.9v-14.5l81.6-9.4v14.5L477.4,249.8z"/>
</g>
<g>
	<path fill="#FFCE03" d="M536.1,96.7c-0.2,0-0.4,0-0.6,0L74.4,57c-3.9-0.3-6.7-3.7-6.4-7.6c0.3-3.9,3.7-6.7,7.6-6.4l461.1,39.7
		c3.9,0.3,6.7,3.7,6.4,7.6C542.7,93.9,539.7,96.7,536.1,96.7z"/>
</g>
<g>
	<path fill="#FFCE03" d="M58.4,436.9c-3.5,0-6.5-2.6-6.9-6.2c-0.4-3.8,2.3-7.3,6.2-7.7l478.7-53.7c3.8-0.4,7.3,2.3,7.7,6.2
		c0.4,3.8-2.3,7.3-6.2,7.7L59.2,436.9C58.9,436.9,58.7,436.9,58.4,436.9z"/>
</g>
<g opacity="0.15">
	<polygon fill="#FFFFFF" points="589.4,343.4 575.9,337.4 575.9,123.9 589.4,116.9 	"/>
</g>
<g id="window">
	<g>
		<path fill="#FFFFFF" d="M685,21.1v418c0,0.3-0.3,0.4-0.5,0.3l-151-56.8c-0.1-0.1-0.2-0.2-0.2-0.3V83.5c0-0.1,0.1-0.3,0.2-0.3
			l151-62.4C684.7,20.7,685,20.9,685,21.1z M655.6,390.5V69.2c0-0.3-0.3-0.4-0.5-0.3L557.8,107c-0.1,0.1-0.2,0.2-0.2,0.3v248.9
			c0,0.1,0.1,0.3,0.2,0.3l97.3,34.3C655.3,390.9,655.6,390.8,655.6,390.5z"/>
	</g>
	<g>
		<path fill="none" stroke="#FFFFFF" stroke-width="2" stroke-miterlimit="10" d="M533.3,382.4V83.5c0-0.1,0.1-0.3,0.2-0.3l151-62.4
			c0.2-0.1,0.5,0.1,0.5,0.3v418c0,0.3-0.3,0.4-0.5,0.3l-151-56.8C533.4,382.6,533.3,382.5,533.3,382.4z"/>
		<path fill="none" stroke="#FFFFFF" stroke-width="2" stroke-miterlimit="10" d="M557.6,356.2V107.4c0-0.1,0.1-0.3,0.2-0.3
			l97.3-38.2c0.2-0.1,0.5,0.1,0.5,0.3v321.3c0,0.3-0.2,0.4-0.5,0.3l-97.3-34.3C557.6,356.5,557.6,356.4,557.6,356.2z"/>
	</g>
</g>
<g>
	<path fill="#6B7175" d="M620.5,232.5h43.6c2.8,0,5-2.2,5-5v-6.4c0-2.8-2.2-5-5-5h-43.6c-2.8,0-5,2.2-5,5v6.4
		C615.5,230.2,617.8,232.5,620.5,232.5z"/>
</g>
<g id="sun" display="none">
	<circle display="inline" fill="#FFCE03" cx="902.4" cy="247.9" r="70.3"/>
	<path display="inline" fill="#FFCE03" d="M691.8,251.7c-24.3,5.4-39.5,29.5-34.1,53.8c5.4,24.3,29.5,39.5,53.8,34.1
		c57.6-10.2,90-66.3,90-66.3S748.2,236.3,691.8,251.7z"/>
	<path display="inline" fill="#FFCE03" d="M778.2,368.3c-9.4,14.9-5,34.6,9.9,44c14.9,9.4,34.6,5,44-9.9
		c23.8-33.9,11.9-78.3,11.9-78.3S798.7,332.3,778.2,368.3z"/>
	<path display="inline" fill="#FFCE03" d="M895.9,400c1.8,11.5,12.7,19.3,24.2,17.5s19.3-12.7,17.5-24.2c-3.1-27.2-28.4-44-28.4-44
		S890.4,373.1,895.9,400z"/>
	<path display="inline" fill="#FFCE03" d="M872.3,101.1c-1.8-11.5-12.7-19.3-24.2-17.5s-19.3,12.7-17.5,24.2
		c3.1,27.2,28.4,44,28.4,44S877.9,127.9,872.3,101.1z"/>
	<path display="inline" fill="#FFCE03" d="M770.9,129.6c-14.9-9.4-34.6-5-44,9.9c-9.4,14.9-5,34.6,9.9,44
		c33.9,23.8,78.3,11.9,78.3,11.9S806.9,150.2,770.9,129.6z"/>
</g>
</svg>
