<svg xmlns="http://www.w3.org/2000/svg" width="745" height="476.6" viewBox="0 0 745 476.6"><path fill="none" d="M447.6 240.5l-329.9 31.7V169l329.9-31.8z"/><text transform="matrix(.9759 -.1124 0 1 117.65 248.989)" fill="#FFF" font-family="'Arkhip'" font-size="154.582" letter-spacing="-7.1">ДЮ</text><path fill="none" d="M529.1 343.5L27.4 401.3v-84.1l501.7-57.8z"/><text transform="matrix(.9759 -.1124 0 1 27.396 385.365)" fill="#FFF" font-family="'Arkhip'" font-size="131.681" letter-spacing="-6.1">ПЛАСТ</text><path fill="none" stroke="#FFCE03" stroke-width="14" stroke-linecap="round" stroke-miterlimit="10" d="M536.1 89.7L75 50m462.1 326.2L58.4 429.9"/><path opacity=".15" fill="#FFF" d="M589.4 343.4l-13.5-6V123.9l13.5-7z"/><path fill="#FFF" d="M685 21.1v418c0 .3-.3.4-.5.3l-151-56.8c-.1-.1-.2-.2-.2-.3V83.5c0-.1.1-.3.2-.3l151-62.4c.2-.1.5.1.5.3zm-29.4 369.4V69.2c0-.3-.3-.4-.5-.3L557.8 107c-.1.1-.2.2-.2.3v248.9c0 .1.1.3.2.3l97.3 34.3c.2.1.5 0 .5-.3z"/><g fill="none" stroke="#FFF" stroke-width="2" stroke-miterlimit="10"><path d="M533.3 382.4V83.5c0-.1.1-.3.2-.3l151-62.4c.2-.1.5.1.5.3v418c0 .3-.3.4-.5.3l-151-56.8c-.1 0-.2-.1-.2-.2z"/><path d="M557.6 356.2V107.4c0-.1.1-.3.2-.3l97.3-38.2c.2-.1.5.1.5.3v321.3c0 .3-.2.4-.5.3l-97.3-34.3c-.2 0-.2-.1-.2-.3z"/></g><path fill="#6B7175" d="M620.5 232.5h43.6c2.8 0 5-2.2 5-5v-6.4c0-2.8-2.2-5-5-5h-43.6c-2.8 0-5 2.2-5 5v6.4c0 2.7 2.3 5 5 5z"/></svg>