<svg xmlns="http://www.w3.org/2000/svg" width="400" height="338.5" viewBox="0 0 400 338.5"><path fill="#626465" d="M341.1 338.5H58.9c-13.7 0-24.7-11.1-24.7-24.7v-289C34.2 11.1 45.2 0 58.9 0h282.2c13.7 0 24.7 11.1 24.7 24.7v289c0 13.7-11 24.8-24.7 24.8z"/><path fill="#FFF" d="M60.2 0h279.7v312.5H60.2z"/><path fill="#626465" d="M374.6 32.3H25.4C11.4 32.3 0 18 0 .3V0h400v.3c0 17.7-11.4 32-25.4 32zm12.5 58H14.3c-4 0-7.3-4.1-7.3-9.2V67.5c0-5.1 3.3-9.2 7.3-9.2h372.8c4 0 7.3 4.1 7.3 9.2V81c-.1 5.2-3.3 9.3-7.3 9.3zm0 58H14.3c-4 0-7.3-4.1-7.3-9.2v-13.5c0-5.1 3.3-9.2 7.3-9.2h372.8c4 0 7.3 4.1 7.3 9.2v13.5c-.1 5.1-3.3 9.2-7.3 9.2zm0 58H13.3c-4 0-7.3-4.1-7.3-9.2v-13.5c0-5.1 3.3-9.2 7.3-9.2h373.8c4 0 7.3 4.1 7.3 9.2v13.5c-.1 5.1-3.3 9.2-7.3 9.2z"/><path fill="#FFF" d="M14.5 148.3h59.3v14.6H14.5zm305.3 0H400v14.6h-80.2zm3.7-58H400v14.6h-76.5zm-3.7-58H400v14.5h-80.2zm-307 58h55v14.6h-55zm0-58h51.7v14.5H12.8z"/><path d="M383.8 235h-.2c-5.8 0-10.5-4.7-10.5-10.5v-.6c0-5.8 4.7-10.5 10.5-10.5h.2c5.8 0 10.5 4.7 10.5 10.5v.6c0 5.8-4.7 10.5-10.5 10.5zm0 32.9h-.2c-5.8 0-10.5-4.7-10.5-10.5v-.6c0-5.8 4.7-10.5 10.5-10.5h.2c5.8 0 10.5 4.7 10.5 10.5v.6c0 5.8-4.7 10.5-10.5 10.5z" fill="#FCCF0F"/></svg>