<svg xmlns="http://www.w3.org/2000/svg" width="400" height="338.5" viewBox="0 0 400 338.5"><path fill="#626465" d="M313.5 199.5H89V17.1C89 7.6 96.6 0 105.9 0h190.7c9.3 0 16.9 7.6 16.9 17.1v182.4z"/><path fill="#FFF" d="M111.6 23h78.1v189.5h-78.1zm101.2 0h77.8v189.5h-77.8z"/><path fill="#FFF" d="M174.8 141.4c-3.4 0-6.6-1.5-8.7-4.1l-.1-.1c-4-4.8-3.3-11.9 1.5-15.9l19.3-15.9c2-1.7 4.6-2.6 7.2-2.6 3.4 0 6.6 1.5 8.7 4.1l.1.1c4 4.8 3.3 11.9-1.5 15.9l-19.3 16c-2.1 1.6-4.6 2.5-7.2 2.5z"/><path fill="#FFCE08" d="M169.7 134.3l-.1-.1c-2.3-2.8-1.9-6.9.9-9.2l19.3-15.9c2.8-2.3 6.9-1.9 9.2.9l.1.1c2.3 2.8 1.9 6.9-.9 9.2l-19.3 15.9c-2.7 2.3-6.9 1.9-9.2-.9z"/><path fill="#626465" d="M331.2 338.5H68.8c-27 0-48.8-21.9-48.8-48.8V198h360v91.7c0 26.9-21.9 48.8-48.8 48.8z"/><path fill="#FFF" d="M71.8 317.5c-17 0-30.8-13.8-30.8-30.8V219h318v67.7c0 17-13.8 30.8-30.8 30.8H71.8z"/><path fill="#626465" d="M64.9 198h23.7v125.9H64.9zm49.7 0h23.7v125.9h-23.7zm49.7 0H188v125.9h-23.7zm49.7 0h23.7v125.9H214zm49.7 0h23.7v125.9h-23.7zm49.7 0h23.7v125.9h-23.7z"/><path fill="#FFF" d="M23.2 217C10.7 217 .5 206.8.5 194.3s10.2-22.7 22.7-22.7 22.7 10.2 22.7 22.7S35.7 217 23.2 217z"/><circle fill="#FFCE08" cx="23.2" cy="194.3" r="16.7"/><path fill="#FFF" d="M377.3 217c-12.5 0-22.7-10.2-22.7-22.7s10.2-22.7 22.7-22.7 22.7 10.2 22.7 22.7-10.2 22.7-22.7 22.7z"/><circle fill="#FFCE08" cx="377.3" cy="194.3" r="16.7"/></svg>