<svg xmlns="http://www.w3.org/2000/svg" width="400" height="338.5" viewBox="0 0 400 338.5"><path fill="#626465" d="M385 338.5H15c-8.3 0-15-6.7-15-15V15C0 6.7 6.7 0 15 0h370c8.3 0 15 6.7 15 15v308.5c0 8.2-6.7 15-15 15z"/><path fill="#FFF" d="M26 26h161v286.5H26zm187 0h161v286.5H213z"/><path fill="#FFF" d="M168.8 192.5c-4.3 0-8.3-1.9-11-5.2l-.1-.1c-5-6.1-4.1-15.1 1.9-20.1L184 147c2.5-2.1 5.8-3.3 9.1-3.3 4.3 0 8.3 1.9 11 5.2l.1.1c5 6.1 4.1 15.1-1.9 20.1l-24.4 20.1c-2.6 2.1-5.8 3.3-9.1 3.3z"/><path fill="#FFCE08" d="M162.4 183.5l-.1-.1c-2.9-3.5-2.4-8.7 1.1-11.6l24.4-20.1c3.5-2.9 8.7-2.4 11.6 1.1l.1.1c2.9 3.5 2.4 8.7-1.1 11.6L174 184.6c-3.5 2.9-8.7 2.4-11.6-1.1zM331 74.3c0 5.2-12.4 5.7-15.8 9.1-3.4 3.4-3.9 15.8-9.1 15.8s-5.7-12.4-9.1-15.8c-3.4-3.4-15.8-3.9-15.8-9.1 0-5.2 12.4-5.7 15.8-9.1s3.9-15.8 9.1-15.8 5.7 12.4 9.1 15.8c3.4 3.5 15.8 3.9 15.8 9.1z"/></svg>