<svg xmlns="http://www.w3.org/2000/svg" width="400" height="338.5" viewBox="0 0 400 338.5"><path fill="#626465" d="M356.5 307.1l-19.8 19.8c-9.2 9.2-24.1 9.2-33.2 0l-81.2-81.2 53-53 81.2 81.2c9.2 9.1 9.2 24 0 33.2zM102.066 85.371l14.779-14.778 73.326 73.326-14.778 14.778z"/><path fill="#FCCF0F" d="M196.123 245.944l80.61-80.609 15.556 15.556-80.61 80.61z"/><path fill="#626465" d="M103.9 87.2l14.8-14.8-.1-21.1L73.1 5.9c-1.6-1.6-4.1-1.6-5.7 0L37.8 35.6c-1.6 1.6-1.6 4.1 0 5.7l45.9 45.9h20.2zM67.1 328.5l-7.7-7.7c-7.7-7.7-7.1-20.8 1.2-29.1L246.3 106l35.6 35.6L96.3 327.2c-8.4 8.4-21.5 9-29.2 1.3z"/><path fill="#FCCF0F" d="M286 102.3l-.4-.4c-9.7-9.7-10.4-24.8-1.6-33.7l19.9-19.9c8.9-8.9 23.9-8.2 33.7 1.6l.4.4c9.7 9.7 10.4 24.8 1.6 33.7l-19.9 19.9c-8.9 8.8-24 8.1-33.7-1.6z"/><path fill="#626465" d="M319.6 68.3l-47.1-47.1c-2.9-2.9-7-4.2-10.9-3.3l-64.8 14.7c-3.5.8-4.5 5.1-1.9 7.8l76.3 76.3 48.4-48.4z"/><path fill="#FCCF0F" d="M246.284 105.987l35.567 35.567-39.668 39.669-35.567-35.568z"/><path fill="#FFF" d="M361.499 110.116l3.253 3.253-48.366 48.366-3.253-3.253z"/><path fill="#626465" d="M338 183.4l-16.6-16.6c-2.8-2.8-2.8-7.4 0-10.2l38.2-38.2c2.8-2.8 7.4-2.8 10.2 0l16.6 16.6c2.8 2.8 2.8 7.4 0 10.2l-38.2 38.2c-2.9 2.9-7.4 2.9-10.2 0zm-30.9-30.8l-38-38 48.4-48.4 38 38c2.5 2.5 2.5 6.6 0 9.1l-39.3 39.3c-2.5 2.5-6.6 2.5-9.1 0z"/></svg>